<svg width="25" height="29" viewBox="0 0 25 29" fill="none" xmlns="http://www.w3.org/2000/svg">
<path d="M3.99502 11L3.77612 9.24C3.65755 9.19417 3.54581 9.13917 3.44092 9.075C3.33603 9.01083 3.23342 8.94208 3.13308 8.86875L1.50498 9.55625L0 6.94375L1.4092 5.87125C1.40008 5.80708 1.39552 5.74521 1.39552 5.68563V5.31438C1.39552 5.25479 1.40008 5.19292 1.4092 5.12875L0 4.05625L1.50498 1.44375L3.13308 2.13125C3.23342 2.05792 3.33831 1.98917 3.44776 1.925C3.55721 1.86083 3.66667 1.80583 3.77612 1.76L3.99502 0H7.00498L7.22388 1.76C7.34245 1.80583 7.45419 1.86083 7.55908 1.925C7.66397 1.98917 7.76658 2.05792 7.86692 2.13125L9.49503 1.44375L11 4.05625L9.5908 5.12875C9.59992 5.19292 9.60448 5.25479 9.60448 5.31438V5.68563C9.60448 5.74521 9.59536 5.80708 9.57711 5.87125L10.9863 6.94375L9.48134 9.55625L7.86692 8.86875C7.76658 8.94208 7.66169 9.01083 7.55224 9.075C7.44279 9.13917 7.33333 9.19417 7.22388 9.24L7.00498 11H3.99502ZM4.95274 9.9H6.03358L6.22512 8.4425C6.50788 8.36917 6.77011 8.26146 7.01182 8.11938C7.25352 7.97729 7.47471 7.80542 7.67537 7.60375L9.02985 8.1675L9.56343 7.2325L8.38682 6.33875C8.43242 6.21042 8.46434 6.07521 8.48259 5.93313C8.50083 5.79104 8.50995 5.64667 8.50995 5.5C8.50995 5.35333 8.50083 5.20896 8.48259 5.06688C8.46434 4.92479 8.43242 4.78958 8.38682 4.66125L9.56343 3.7675L9.02985 2.8325L7.67537 3.41C7.47471 3.19917 7.25352 3.02271 7.01182 2.88063C6.77011 2.73854 6.50788 2.63083 6.22512 2.5575L6.04726 1.1H4.96642L4.77488 2.5575C4.49212 2.63083 4.22989 2.73854 3.98818 2.88063C3.74648 3.02271 3.52529 3.19458 3.32463 3.39625L1.97015 2.8325L1.43657 3.7675L2.61318 4.6475C2.56758 4.785 2.53566 4.9225 2.51741 5.06C2.49917 5.1975 2.49005 5.34417 2.49005 5.5C2.49005 5.64667 2.49917 5.78875 2.51741 5.92625C2.53566 6.06375 2.56758 6.20125 2.61318 6.33875L1.43657 7.2325L1.97015 8.1675L3.32463 7.59C3.52529 7.80083 3.74648 7.97729 3.98818 8.11938C4.22989 8.26146 4.49212 8.36917 4.77488 8.4425L4.95274 9.9ZM5.52736 7.425C6.05638 7.425 6.50788 7.23708 6.88184 6.86125C7.2558 6.48542 7.44279 6.03167 7.44279 5.5C7.44279 4.96833 7.2558 4.51458 6.88184 4.13875C6.50788 3.76292 6.05638 3.575 5.52736 3.575C4.98922 3.575 4.53545 3.76292 4.16604 4.13875C3.79664 4.51458 3.61194 4.96833 3.61194 5.5C3.61194 6.03167 3.79664 6.48542 4.16604 6.86125C4.53545 7.23708 4.98922 7.425 5.52736 7.425Z" fill="#616161"/>
<path d="M11.3 29L10.9 25.8C10.6833 25.7167 10.4792 25.6167 10.2875 25.5C10.0958 25.3833 9.90833 25.2583 9.725 25.125L6.75 26.375L4 21.625L6.575 19.675C6.55833 19.5583 6.55 19.4458 6.55 19.3375V18.6625C6.55 18.5542 6.55833 18.4417 6.575 18.325L4 16.375L6.75 11.625L9.725 12.875C9.90833 12.7417 10.1 12.6167 10.3 12.5C10.5 12.3833 10.7 12.2833 10.9 12.2L11.3 9H16.8L17.2 12.2C17.4167 12.2833 17.6208 12.3833 17.8125 12.5C18.0042 12.6167 18.1917 12.7417 18.375 12.875L21.35 11.625L24.1 16.375L21.525 18.325C21.5417 18.4417 21.55 18.5542 21.55 18.6625V19.3375C21.55 19.4458 21.5333 19.5583 21.5 19.675L24.075 21.625L21.325 26.375L18.375 25.125C18.1917 25.2583 18 25.3833 17.8 25.5C17.6 25.6167 17.4 25.7167 17.2 25.8L16.8 29H11.3ZM13.05 27H15.025L15.375 24.35C15.8917 24.2167 16.3708 24.0208 16.8125 23.7625C17.2542 23.5042 17.6583 23.1917 18.025 22.825L20.5 23.85L21.475 22.15L19.325 20.525C19.4083 20.2917 19.4667 20.0458 19.5 19.7875C19.5333 19.5292 19.55 19.2667 19.55 19C19.55 18.7333 19.5333 18.4708 19.5 18.2125C19.4667 17.9542 19.4083 17.7083 19.325 17.475L21.475 15.85L20.5 14.15L18.025 15.2C17.6583 14.8167 17.2542 14.4958 16.8125 14.2375C16.3708 13.9792 15.8917 13.7833 15.375 13.65L15.05 11H13.075L12.725 13.65C12.2083 13.7833 11.7292 13.9792 11.2875 14.2375C10.8458 14.4958 10.4417 14.8083 10.075 15.175L7.6 14.15L6.625 15.85L8.775 17.45C8.69167 17.7 8.63333 17.95 8.6 18.2C8.56667 18.45 8.55 18.7167 8.55 19C8.55 19.2667 8.56667 19.525 8.6 19.775C8.63333 20.025 8.69167 20.275 8.775 20.525L6.625 22.15L7.6 23.85L10.075 22.8C10.4417 23.1833 10.8458 23.5042 11.2875 23.7625C11.7292 24.0208 12.2083 24.2167 12.725 24.35L13.05 27ZM14.1 22.5C15.0667 22.5 15.8917 22.1583 16.575 21.475C17.2583 20.7917 17.6 19.9667 17.6 19C17.6 18.0333 17.2583 17.2083 16.575 16.525C15.8917 15.8417 15.0667 15.5 14.1 15.5C13.1167 15.5 12.2875 15.8417 11.6125 16.525C10.9375 17.2083 10.6 18.0333 10.6 19C10.6 19.9667 10.9375 20.7917 11.6125 21.475C12.2875 22.1583 13.1167 22.5 14.1 22.5Z" fill="#616161"/>
</svg>
