<svg width="20" height="17" viewBox="0 0 20 17" fill="none" xmlns="http://www.w3.org/2000/svg">
<path d="M1.5 16.5875C0.95 16.5875 0.479167 16.3917 0.0875 16C-0.304167 15.6083 -0.5 15.1375 -0.5 14.5875V2.5875C-0.5 2.0375 -0.304167 1.56667 0.0875 1.175C0.479167 0.783333 0.95 0.5875 1.5 0.5875H7.5L9.5 2.5875H17.5C18.05 2.5875 18.5208 2.78333 18.9125 3.175C19.3042 3.56667 19.5 4.0375 19.5 4.5875V14.5875C19.5 15.1375 19.3042 15.6083 18.9125 16C18.5208 16.3917 18.05 16.5875 17.5 16.5875H1.5ZM17.5 4.5875L3.5 16L6.675 2.5875L17.5 4.5875Z" fill="#616161"/>
</svg>
